<svg xmlns="http://www.w3.org/2000/svg" version="1.1" xmlns:xlink="http://www.w3.org/1999/xlink" xmlns:svgjs="http://svgjs.com/svgjs" width="300px" height="300px"><svg height="300px" width="300px" fill="#000000" xmlns="http://www.w3.org/2000/svg" xmlns:xlink="http://www.w3.org/1999/xlink" version="1.1" x="0px" y="0px" viewBox="0 0 100 100" enable-background="new 0 0 100 100" xml:space="preserve"><g><polygon points="32.094,75.184 44.055,75.184 38.074,59.238  "></polygon><polygon points="55.941,75.184 67.904,75.184 61.924,59.238  "></polygon><path d="M0.06,48.887v8.819h9.364v33.409H90.99V57.707h8.949v-8.82H0.06L0.06,48.887z M69.877,76.149   c-0.018,0.098-0.055,0.19-0.105,0.282c-0.008,0.007-0.008,0.022-0.014,0.035c-0.006,0.006-0.012,0.008-0.018,0.013   c-0.057,0.075-0.123,0.145-0.205,0.204c0,0-2.98,3.521-7.611,3.521c-4.541,0-7.611-3.521-7.611-3.521   c-0.08-0.061-0.146-0.129-0.205-0.204c-0.004-0.005-0.012-0.007-0.016-0.013c-0.004-0.013-0.004-0.028-0.014-0.035   c-0.053-0.092-0.088-0.186-0.105-0.282c-0.004-0.028-0.012-0.05-0.018-0.075c-0.01-0.102-0.004-0.207,0.025-0.305   c0.004-0.018,0.018-0.023,0.018-0.032c0.004-0.007,0-0.019,0.004-0.021l6.742-17.99h-3.229h-6.15l-0.02,24.808h5.734v2.722H42.765   v-2.722h5.864l0.001-24.808h-6.154H39.25l6.745,17.99c0.002,0.004,0,0.015,0.002,0.021c0.002,0.009,0.012,0.017,0.017,0.032   c0.027,0.098,0.035,0.203,0.022,0.305c-0.002,0.025-0.007,0.047-0.011,0.075c-0.021,0.098-0.055,0.19-0.105,0.282   c-0.01,0.007-0.01,0.022-0.017,0.035c-0.002,0.006-0.014,0.008-0.014,0.013c-0.06,0.075-0.124,0.145-0.204,0.204   c0,0-3.072,3.521-7.614,3.521c-4.626,0-7.611-3.521-7.611-3.521c-0.084-0.061-0.149-0.129-0.209-0.204   c0-0.005-0.004-0.007-0.009-0.013c-0.01-0.013-0.01-0.028-0.015-0.035c-0.056-0.092-0.09-0.186-0.107-0.282   c-0.006-0.028-0.011-0.05-0.013-0.075c-0.012-0.102-0.005-0.207,0.026-0.305c0.004-0.018,0.009-0.023,0.015-0.032   c0.002-0.007,0-0.019,0.002-0.021l7.157-19.094c0,0,0.005-0.003,0.01-0.005c0.114-0.306,0.408-0.524,0.754-0.524h4.303h6.256V53.1   h0.013h1.35h0.009h1.348h0.016v2.994h6.258h4.301c0.346,0,0.639,0.22,0.754,0.524c0.004,0.002,0.01,0.005,0.01,0.005l7.156,19.094   c0.006,0.004,0,0.015,0.006,0.021c0.004,0.009,0.01,0.017,0.018,0.032c0.025,0.098,0.031,0.203,0.021,0.305   C69.887,76.1,69.881,76.121,69.877,76.149z"></path></g><circle cx="21.854" cy="27.048" r="5.451"></circle><circle cx="36.24" cy="27.048" r="5.451"></circle><circle cx="28.835" cy="14.335" r="5.45"></circle><circle cx="43.552" cy="14.335" r="5.45"></circle><circle cx="57.512" cy="14.335" r="5.45"></circle><circle cx="71.402" cy="14.335" r="5.45"></circle><circle cx="64.678" cy="27.048" r="5.451"></circle><path d="M50.533,21.598c3.008,0,5.449,2.438,5.449,5.451c0,3.008-2.439,5.45-5.449,5.45c-3.015,0-5.451-2.44-5.451-5.45  C45.082,24.037,47.518,21.598,50.533,21.598z"></path><path d="M79.008,21.598c3.01,0,5.451,2.438,5.451,5.451c0,3.008-2.441,5.45-5.451,5.45c-3.016,0-5.451-2.44-5.451-5.45  C73.557,24.037,75.994,21.598,79.008,21.598z"></path><path d="M34.288,45.461V41.6c0-3.619-2.129-7.166-6.364-7.166l-12.22-0.006c-3.859,0-6.28,3.146-6.28,7.072v3.961H34.288z"></path><path d="M62.963,45.461V41.6c0-3.619-2.129-7.166-6.365-7.166l-12.22-0.006c-3.857,0-6.275,3.146-6.275,7.072v3.961H62.963z"></path><path d="M91.438,45.461V41.6c0-3.619-2.131-7.166-6.365-7.166l-12.219-0.006c-3.857,0-6.275,3.146-6.275,7.072v3.961H91.438z"></path></svg><style>@media (prefers-color-scheme: light) { :root { filter: none; } }
</style></svg>